HIERARCHY
ROOT SpineBase
{
  OFFSET 0.000000 0.000000 0.000000
  CHANNELS 6 Xposition Yposition Zposition Zrotation Xrotation Yrotation
  JOINT SpineMid
  {
    OFFSET -0.000000 28.670756 0.000000
    CHANNELS 3 Zrotation Xrotation Yrotation
    JOINT SpineShoulder
    {
      OFFSET 0.156049 21.468332 -0.467977
      CHANNELS 3 Zrotation Xrotation Yrotation
      JOINT Neck
      {
        OFFSET 0.065905 7.093822 -0.413813
        CHANNELS 3 Zrotation Xrotation Yrotation
        JOINT Head
        {
          OFFSET -1.852928 12.339241 -0.411270
          CHANNELS 3 Zrotation Xrotation Yrotation
          End Site
          {
            OFFSET 0 0 0
          }
        }
      }
      JOINT ShoulderLeft
      {
        OFFSET -16.774818 -2.614768 3.588157
        CHANNELS 3 Zrotation Xrotation Yrotation
        JOINT ElbowLeft
        {
          OFFSET -4.999653 -24.840053 2.092144
          CHANNELS 3 Zrotation Xrotation Yrotation
          JOINT WristLeft
          {
            OFFSET -3.006081 -19.185121 -5.149473
            CHANNELS 3 Zrotation Xrotation Yrotation
            JOINT HandLeft
            {
              OFFSET -0.387733 -7.195086 -1.968950
              CHANNELS 3 Zrotation Xrotation Yrotation
              JOINT HandTipLeft
              {
                OFFSET -0.562440 -6.025051 -1.964912
                CHANNELS 3 Zrotation Xrotation Yrotation
                End Site
                {
                  OFFSET 0 0 0
                }
              }
              JOINT ThumbLeft
              {
                OFFSET 4.059105 -1.228919 -2.186670
                CHANNELS 3 Zrotation Xrotation Yrotation
                End Site
                {
                  OFFSET 0 0 0
                }
              }
            }
          }
        }
      }
      JOINT ShoulderRight
      {
        OFFSET 15.678601 -2.685661 -5.179940
        CHANNELS 3 Zrotation Xrotation Yrotation
        JOINT ElbowRight
        {
          OFFSET 5.776435 -24.882630 -3.178120
          CHANNELS 3 Zrotation Xrotation Yrotation
          JOINT WristRight
          {
            OFFSET -1.305919 -18.908681 -5.515794
            CHANNELS 3 Zrotation Xrotation Yrotation
            JOINT HandRight
            {
              OFFSET -1.928320 -8.140410 -1.631063
              CHANNELS 3 Zrotation Xrotation Yrotation
              JOINT HandTipRight
              {
                OFFSET -1.072234 -6.348752 -2.217530
                CHANNELS 3 Zrotation Xrotation Yrotation
                End Site
                {
                  OFFSET 0 0 0
                }
              }
              JOINT ThumbRight
              {
                OFFSET -2.884443 0.831363 -0.676558
                CHANNELS 3 Zrotation Xrotation Yrotation
                End Site
                {
                  OFFSET 0 0 0
                }
              }
            }
          }
        }
      }
    }
  }
  JOINT HipLeft
  {
    OFFSET -6.013225 0.388904 -1.888382
    CHANNELS 3 Zrotation Xrotation Yrotation
    JOINT KneeLeft
    {
      OFFSET -8.301726 -31.512508 5.053327
      CHANNELS 3 Zrotation Xrotation Yrotation
      JOINT AnkleLeft
      {
        OFFSET -1.837229 -33.974626 8.560274
        CHANNELS 3 Zrotation Xrotation Yrotation
        JOINT FootLeft
        {
          OFFSET -2.220984 -6.841699 -7.193342
          CHANNELS 3 Zrotation Xrotation Yrotation
          End Site
          {
            OFFSET 0 0 0
          }
        }
      }
    }
  }
  JOINT HipRight
  {
    OFFSET 5.700349 0.891004 -4.692463
    CHANNELS 3 Zrotation Xrotation Yrotation
    JOINT KneeRight
    {
      OFFSET 5.502718 -28.165733 2.038937
      CHANNELS 3 Zrotation Xrotation Yrotation
      JOINT AnkleRight
      {
        OFFSET 2.483749 -35.730863 10.544796
        CHANNELS 3 Zrotation Xrotation Yrotation
        JOINT FootRight
        {
          OFFSET -1.934904 -6.406533 -8.293914
          CHANNELS 3 Zrotation Xrotation Yrotation
          End Site
          {
            OFFSET 0 0 0
          }
        }
      }
    }
  }
}
MOTION
Frames: 12
Frame Time: 0.033333
16.954034 73.659308 365.379544 0.000000 0.000000 13.462536 -0.000000 0.000000 -13.462536 -0.000000 0.000000 0.000000 -0.000000 0.000000 0.000000 0.000000 0.000000 0.000000 -0.000000 0.000000 0.000000 -0.000000 0.000000 0.000000 -0.000000 0.000000 0.000000 -0.000000 0.000000 0.000000 0.000000 0.000000 0.000000 0.000000 0.000000 0.000000 -0.000000 0.000000 0.000000 -0.000000 0.000000 0.000000 -0.000000 0.000000 0.000000 -0.000000 0.000000 0.000000 0.000000 0.000000 0.000000 0.000000 0.000000 0.000000 -0.000000 0.000000 -13.462536 -0.000000 0.000000 0.000000 -0.000000 0.000000 0.000000 0.000000 0.000000 0.000000 -0.000000 0.000000 -13.462536 -0.000000 0.000000 0.000000 -0.000000 0.000000 0.000000 0.000000 0.000000 0.000000
17.000071 73.654334 365.333413 -0.121584 0.204578 13.438118 0.070713 -0.227232 -13.437761 -0.000000 0.000000 0.000000 -0.000000 0.000000 0.000000 0.000000 0.000000 0.000000 -0.000000 0.000000 0.000000 -0.380730 -1.189797 0.285319 -0.276904 -1.160252 0.013597 -0.053868 -1.309809 0.261587 0.000000 0.000000 0.000000 0.000000 0.000000 0.000000 -0.000000 0.000000 0.000000 0.954171 -0.826304 -0.214970 -0.263051 -0.445275 0.389919 0.596525 4.380126 -1.181410 0.000000 0.000000 0.000000 0.000000 0.000000 0.000000 0.070713 -0.227232 -13.437761 -0.000000 0.000000 0.000000 -0.738325 10.054106 -2.220653 0.000000 0.000000 0.000000 0.070713 -0.227232 -13.437761 -0.000000 0.000000 0.000000 -0.696708 4.889862 -0.516513 0.000000 0.000000 0.000000
17.052221 73.653304 365.304528 -0.219801 0.377053 13.405807 0.126398 -0.417737 -13.404623 -0.000000 0.000000 0.000000 -0.000000 0.000000 0.000000 0.000000 0.000000 0.000000 -0.000000 0.000000 0.000000 -0.690705 -2.288374 0.532556 -0.382599 -2.039505 -0.031161 -0.130592 -1.993539 0.444804 0.000000 0.000000 0.000000 0.000000 0.000000 0.000000 -0.000000 0.000000 0.000000 1.799275 -1.629927 -0.388763 -0.274116 -0.253587 0.563232 0.952091 7.674573 -2.130774 0.000000 0.000000 0.000000 0.000000 0.000000 0.000000 0.126398 -0.417737 -13.404623 -0.000000 0.000000 0.000000 -1.061067 16.861371 -3.658078 0.000000 0.000000 0.000000 0.790080 -1.161423 -13.447468 -1.756919 1.238332 -0.159783 -0.354377 8.250777 -0.655317 0.000000 0.000000 0.000000
17.110484 73.656219 365.292891 -0.294790 0.517641 13.365882 0.167154 -0.571762 -13.363716 -0.000000 0.000000 0.000000 -0.056594 0.808710 0.119993 0.000000 0.000000 0.000000 -0.000000 0.000000 0.000000 -0.932934 -3.298224 0.745287 -0.321106 -2.646842 -0.129795 -0.234747 -2.066014 0.564254 0.000000 0.000000 0.000000 0.000000 0.000000 0.000000 -0.000000 0.000000 0.000000 2.529703 -2.403629 -0.522937 -0.015026 0.538249 0.501186 1.019370 9.970165 -2.813620 0.000000 0.000000 0.000000 0.000000 0.000000 0.000000 0.167154 -0.571762 -13.363716 -0.000000 0.000000 0.000000 -1.225457 21.245121 -4.543830 0.000000 0.000000 0.000000 0.983636 -1.627809 -13.436582 -2.348579 1.809705 -0.192586 -0.477670 11.235570 -0.817373 0.000000 0.000000 0.000000
17.174859 73.663078 365.298501 -0.346657 0.626516 13.318540 0.193024 -0.689516 -13.315483 -0.000000 0.000000 0.000000 -0.132185 0.983242 0.144447 0.000000 0.000000 0.000000 -0.834615 -0.326168 -0.007011 -0.274709 -3.895760 0.935166 -0.095425 -2.992677 -0.280523 -0.371769 -1.548938 0.628357 0.000000 0.000000 0.000000 0.000000 0.000000 0.000000 -0.000000 0.000000 0.000000 3.141562 -3.141054 -0.619622 0.548546 1.927059 0.169360 0.751597 11.308633 -3.198083 0.000000 0.000000 0.000000 0.000000 0.000000 0.000000 -0.419623 -0.095479 -13.552085 -0.048728 0.014039 0.010827 -0.663442 23.365998 -4.772099 0.000000 0.000000 0.000000 1.048304 -2.020804 -13.427160 -2.759555 2.353034 -0.198787 -0.589399 13.604192 -0.905039 0.000000 0.000000 0.000000
17.245347 73.673882 365.321358 -0.375472 0.703806 13.263896 0.204001 -0.771169 -13.260217 -0.000000 0.000000 0.000000 -0.235913 1.109665 0.161162 0.000000 0.000000 0.000000 -0.962522 -0.346929 -0.014129 -0.259818 -4.715001 1.094737 0.293167 -3.086696 -0.484339 -0.547005 -0.458229 0.638410 0.000000 0.000000 0.000000 0.000000 0.000000 0.000000 -0.000000 0.000000 0.000000 3.632646 -3.836825 -0.681361 1.470991 3.941876 -0.486929 0.103555 11.683825 -3.256662 0.000000 0.000000 0.000000 0.000000 0.000000 0.000000 -0.390920 -0.128826 -13.509888 -0.176553 -0.025626 -0.008728 -0.706377 24.477628 -4.839085 0.000000 0.000000 0.000000 0.987362 -2.342297 -13.420907 -2.995783 2.871038 -0.181221 -0.701350 15.447799 -0.936161 0.000000 0.000000 0.000000
17.334922 73.681907 365.353272 -0.362578 0.744593 13.210969 0.182839 -0.807741 -13.207324 -0.000000 0.000000 0.000000 -0.261756 1.030705 0.148506 0.000000 0.000000 0.000000 -1.052282 -0.253505 -0.039853 -0.286814 -5.789909 1.294184 1.135588 -2.570240 -0.879135 -0.731879 2.081783 0.475374 0.000000 0.000000 0.000000 0.000000 0.000000 0.000000 -0.000000 0.000000 0.000000 3.866108 -4.720246 -0.651961 3.352441 7.915984 -2.061840 0.400245 9.886279 -3.290842 0.000000 0.000000 0.000000 0.000000 0.000000 0.000000 0.182839 -0.807741 -13.207324 -1.006707 0.530505 -0.277876 -1.061918 26.455209 -4.807010 0.000000 0.000000 0.000000 0.646309 -2.756503 -13.477315 -3.147462 3.897095 -0.103353 -1.873792 21.857511 -0.661786 0.000000 0.000000 0.000000
17.422328 73.703491 365.413452 -0.345675 0.754352 13.130664 0.165292 -0.813149 -13.127216 -0.000000 0.000000 0.000000 -0.465118 1.171601 0.165350 0.000000 0.000000 0.000000 -1.140909 -0.229351 -0.052104 -0.186075 -6.511796 1.408864 1.719563 -2.746411 -1.139485 -1.598926 4.206434 0.664747 0.000000 0.000000 0.000000 0.000000 0.000000 0.000000 -0.000000 0.000000 0.000000 4.073579 -5.375901 -0.636177 5.354890 11.609651 -3.790012 -1.538392 8.471149 -2.513298 0.000000 0.000000 0.000000 0.000000 0.000000 0.000000 0.165292 -0.813149 -13.127216 -1.193530 0.531835 -0.324150 -0.962699 24.935352 -4.346256 0.000000 0.000000 0.000000 0.163840 -3.060304 -13.517210 -2.885770 4.456047 0.001541 -1.413922 19.635062 -0.604607 0.000000 0.000000 0.000000
17.509689 73.729260 365.495593 -0.319868 0.736585 13.028183 0.145605 -0.789726 -13.025124 -0.000000 0.000000 0.000000 -0.668744 1.227747 0.169457 0.000000 0.000000 0.000000 -1.184110 -0.157599 -0.069490 -0.002246 -7.210861 1.492244 2.673328 -2.003709 -1.568638 -2.240356 7.050311 0.581799 0.000000 0.000000 0.000000 0.000000 0.000000 0.000000 -0.000000 0.000000 0.000000 4.215826 -5.827582 -0.623675 7.464400 15.593664 -5.836975 -4.746979 4.319829 -0.777530 0.000000 0.000000 0.000000 0.000000 0.000000 0.000000 0.145605 -0.789726 -13.025124 -1.191276 0.502330 -0.322282 -0.956349 20.812291 -3.390214 0.000000 0.000000 0.000000 -0.203191 -2.935188 -13.449132 -2.388830 4.466692 0.050999 -0.316256 15.201804 -1.077138 0.000000 0.000000 0.000000
17.579546 73.756135 365.579855 -0.284408 0.699500 12.932218 0.120662 -0.745403 -12.929697 -0.000000 0.000000 0.000000 -0.937065 1.202997 0.159511 0.000000 0.000000 0.000000 -1.163139 -0.200736 -0.059473 0.164632 -7.345291 1.470184 3.413167 -0.644988 -1.925669 -1.353348 7.131386 -0.014936 0.000000 0.000000 0.000000 0.000000 0.000000 0.000000 -0.377975 -0.762488 -0.131463 4.732293 -5.319984 -0.559462 11.029856 19.622758 -8.728358 -9.646071 1.008893 0.646027 0.000000 0.000000 0.000000 0.000000 0.000000 0.000000 0.120662 -0.745403 -12.929697 -1.316038 0.515058 -0.353721 -0.913365 19.667079 -3.011218 0.000000 0.000000 0.000000 -0.441979 -2.910327 -13.388532 -2.169234 4.622525 0.089559 0.137431 13.354792 -1.227217 0.000000 0.000000 0.000000
17.655946 73.785036 365.669651 -0.226932 0.634269 12.879764 0.079849 -0.668892 -12.878042 -0.000000 0.000000 0.000000 -1.226784 1.158321 0.145740 0.000000 0.000000 0.000000 -1.086866 -0.226010 -0.048097 0.346981 -7.607891 1.450072 4.042896 0.478515 -2.266069 -1.847278 7.834683 -0.020093 0.000000 0.000000 0.000000 0.000000 0.000000 0.000000 -0.309188 -0.852026 -0.160861 5.338593 -5.403030 -0.690984 12.254820 23.206438 -10.691768 -11.203771 -1.360301 1.141732 0.000000 0.000000 0.000000 0.000000 0.000000 0.000000 0.079849 -0.668892 -12.878042 -1.235331 0.487104 -0.332518 -1.019016 19.297170 -2.903962 0.000000 0.000000 0.000000 -0.681132 -2.747384 -13.349476 -1.787043 4.627623 0.135479 0.270921 12.195774 -1.360802 0.000000 0.000000 0.000000
17.718860 73.821262 365.749076 -0.181906 0.581256 12.768125 0.048952 -0.607084 -12.766943 -0.000000 0.000000 0.000000 -1.538445 1.103998 0.129634 0.000000 0.000000 0.000000 -1.001855 -0.288622 -0.028758 0.478020 -7.823515 1.429649 5.068597 2.778404 -2.863629 -2.888910 7.308630 0.223317 0.000000 0.000000 0.000000 0.000000 0.000000 0.000000 -0.267629 -0.881826 -0.172858 6.440785 -5.591495 -0.949692 11.310717 25.713495 -11.342840 -9.745813 -2.214628 1.067046 0.000000 0.000000 0.000000 0.000000 0.000000 0.000000 0.048952 -0.607084 -12.766943 -1.100170 0.566722 -0.302633 -1.109674 19.595846 -3.063905 0.000000 0.000000 0.000000 -0.878825 -2.579615 -13.242341 -1.416182 4.529687 0.170427 0.227238 11.847673 -1.472088 0.000000 0.000000 0.000000
